<?xml version="1.0" encoding="utf-8"?>
<!-- Generator: Adobe Illustrator 25.0.0, SVG Export Plug-In . SVG Version: 6.00 Build 0)  -->
<svg version="1.1" xmlns="http://www.w3.org/2000/svg" xmlns:xlink="http://www.w3.org/1999/xlink" x="0px" y="0px"
	 viewBox="0 0 39.1 12.2" style="enable-background:new 0 0 39.1 12.2;" xml:space="preserve">
<style type="text/css">
	.st0{fill:#FFCE2E;}
	.st1{fill:#5C89FF;}
</style>
<g id="Warstwa_1">
	<g>
		<path d="M0.3,6.6c0.2-0.4,0.5-0.8,0.9-1c0.4-0.2,0.8-0.4,1.3-0.4c0.5,0,0.9,0.1,1.3,0.3C4.2,5.7,4.5,6,4.7,6.3v-1h0.9v5.5H4.7v-1
			c-0.2,0.3-0.5,0.6-0.8,0.8c-0.4,0.2-0.8,0.3-1.3,0.3c-0.5,0-0.9-0.1-1.3-0.4c-0.4-0.2-0.7-0.6-0.9-1S0,8.6,0,8
			C0,7.5,0.1,7,0.3,6.6z M4.4,7C4.2,6.7,4,6.4,3.7,6.3S3.1,6,2.8,6C2.5,6,2.1,6.1,1.9,6.2C1.6,6.4,1.4,6.6,1.2,7S0.9,7.6,0.9,8
			c0,0.4,0.1,0.8,0.3,1.1c0.2,0.3,0.4,0.5,0.7,0.7s0.6,0.2,0.9,0.2c0.3,0,0.7-0.1,0.9-0.2s0.5-0.4,0.7-0.7C4.6,8.8,4.7,8.5,4.7,8
			C4.7,7.6,4.6,7.3,4.4,7z"/>
		<path d="M12.8,8.4H8.4c0,0.5,0.2,1,0.6,1.3c0.3,0.3,0.7,0.5,1.2,0.5c0.4,0,0.7-0.1,1-0.3c0.3-0.2,0.5-0.4,0.6-0.7h1
			c-0.1,0.5-0.4,1-0.9,1.3c-0.4,0.3-1,0.5-1.6,0.5c-0.5,0-1-0.1-1.4-0.4c-0.4-0.2-0.7-0.6-1-1C7.6,9.1,7.5,8.6,7.5,8
			c0-0.6,0.1-1.1,0.3-1.5s0.5-0.8,1-1s0.9-0.3,1.4-0.3c0.5,0,1,0.1,1.4,0.3s0.7,0.5,0.9,0.9c0.2,0.4,0.3,0.8,0.3,1.4
			C12.9,8,12.8,8.2,12.8,8.4z M11.7,6.8c-0.2-0.3-0.4-0.4-0.6-0.6C10.8,6.1,10.5,6,10.2,6C9.7,6,9.3,6.1,9,6.4
			C8.7,6.7,8.5,7.1,8.4,7.7h3.5C11.9,7.3,11.8,7,11.7,6.8z"/>
		<path d="M16.4,5.5c0.3-0.2,0.7-0.3,1.1-0.3v0.9h-0.2c-1,0-1.5,0.6-1.5,1.7v3h-0.9V5.3h0.9v0.9C15.8,5.9,16.1,5.6,16.4,5.5z"/>
		<path d="M19.2,4.2c-0.1-0.1-0.2-0.3-0.2-0.4s0.1-0.3,0.2-0.4c0.1-0.1,0.3-0.2,0.4-0.2c0.2,0,0.3,0.1,0.4,0.2
			c0.1,0.1,0.2,0.3,0.2,0.4s-0.1,0.3-0.2,0.4c-0.1,0.1-0.3,0.2-0.4,0.2C19.5,4.4,19.4,4.4,19.2,4.2z M20.1,5.3v5.5h-0.9V5.3H20.1z"
			/>
		<path d="M23.3,3.4v7.4h-0.9V3.4H23.3z"/>
	</g>
	<g>
		<path class="st0" d="M25.1,9.7L25.1,9.7c-1.4,0.4-1.1,2.5,0.4,2.5h2C26.4,11.6,25.6,10.8,25.1,9.7z"/>
		<path class="st0" d="M28.1,1.9L28.1,1.9c-0.7-1.3,1-2.5,2-1.5l1.4,1.4C30.4,1.5,29.2,1.5,28.1,1.9z"/>
		<path class="st1" d="M35.6,6.2c0.1,0.4,0.1,0.7,0.1,1.1c0,2.1-1.1,3.9-2.8,4.8c2-0.2,3.8-1,5.3-2.1C40.4,8.4,38.2,4.9,35.6,6.2
			L35.6,6.2z"/>
	</g>
	<path class="st0" d="M30.1,2.3c-2.7,0-4.9,2.2-4.9,4.9s2.2,4.9,4.9,4.9S35,10,35,7.3S32.8,2.3,30.1,2.3z M30.1,10.7
		c-1.9,0-3.5-1.6-3.5-3.5c0-1.9,1.6-3.5,3.5-3.5c1.9,0,3.5,1.6,3.5,3.5C33.6,9.2,32,10.7,30.1,10.7z"/>
	<g>
		<g>
			<path class="st0" d="M73.7,17L73.7,17c-3.3,1-2.6,5.9,0.9,5.9h4.8C77,21.5,75,19.4,73.7,17z"/>
			<path class="st0" d="M80.9-1.8L80.9-1.8c-1.6-3,2.3-6,4.7-3.5L89-1.9C86.4-2.7,83.5-2.7,80.9-1.8z"/>
			<path class="st1" d="M98.7,8.5C98.9,9.3,99,10.2,99,11c0,4.9-2.7,9.3-6.7,11.6c4.7-0.6,9-2.3,12.6-5c5.4-4,0-12.3-5.9-9.3
				L98.7,8.5z"/>
		</g>
		<path class="st0" d="M85.7-0.7c-6.5,0-11.8,5.3-11.8,11.8s5.3,11.8,11.8,11.8S97.4,17.5,97.4,11S92.2-0.7,85.7-0.7z M85.7,19.3
			c-4.6,0-8.3-3.7-8.3-8.3c0-4.6,3.7-8.3,8.3-8.3c4.6,0,8.3,3.7,8.3,8.3C94,15.6,90.2,19.3,85.7,19.3z"/>
	</g>
</g>
<g id="Warstwa_2">
</g>
</svg>
