<?xml version="1.0" encoding="utf-8"?>
<!-- Generator: Adobe Illustrator 25.0.0, SVG Export Plug-In . SVG Version: 6.00 Build 0)  -->
<svg version="1.1" xmlns="http://www.w3.org/2000/svg" xmlns:xlink="http://www.w3.org/1999/xlink" x="0px" y="0px"
	 viewBox="0 0 50 50" style="enable-background:new 0 0 50 50;" xml:space="preserve">
<style type="text/css">
	.st0{fill:#FFCE2E;}
	.st1{fill:#5C89FF;}
	.st2{fill:#FFFFFF;}
</style>
<g id="Warstwa_1">
	<g>
		<path d="M-165.3-27.1c0.2-0.4,0.5-0.8,0.9-1c0.4-0.2,0.8-0.4,1.3-0.4s0.9,0.1,1.3,0.3c0.4,0.2,0.7,0.5,0.9,0.8v-1h0.9v5.5h-0.9v-1
			c-0.2,0.3-0.5,0.6-0.8,0.8c-0.4,0.2-0.8,0.3-1.3,0.3s-0.9-0.1-1.3-0.4c-0.4-0.2-0.7-0.6-0.9-1s-0.4-0.9-0.4-1.5
			C-165.6-26.2-165.6-26.7-165.3-27.1z M-161.2-26.7c-0.2-0.3-0.4-0.6-0.7-0.7s-0.6-0.3-0.9-0.3c-0.3,0-0.7,0.1-0.9,0.2
			c-0.3,0.2-0.5,0.4-0.7,0.8c-0.2,0.4-0.3,0.6-0.3,1c0,0.4,0.1,0.8,0.3,1.1c0.2,0.3,0.4,0.5,0.7,0.7c0.3,0.2,0.6,0.2,0.9,0.2
			c0.3,0,0.7-0.1,0.9-0.2c0.2-0.1,0.5-0.4,0.7-0.7c0.2-0.3,0.3-0.6,0.3-1.1C-160.9-26.1-161.1-26.4-161.2-26.7z"/>
		<path d="M-152.8-25.3h-4.4c0,0.5,0.2,1,0.6,1.3c0.3,0.3,0.7,0.5,1.2,0.5c0.4,0,0.7-0.1,1-0.3c0.3-0.2,0.5-0.4,0.6-0.7h1
			c-0.1,0.5-0.4,1-0.9,1.3c-0.4,0.3-1,0.5-1.6,0.5c-0.5,0-1-0.1-1.4-0.4c-0.4-0.2-0.7-0.6-1-1c-0.3-0.5-0.4-1-0.4-1.6
			s0.1-1.1,0.3-1.5c0.2-0.4,0.5-0.8,1-1c0.5-0.2,0.9-0.3,1.4-0.3s1,0.1,1.4,0.3c0.4,0.2,0.7,0.5,0.9,0.9s0.3,0.8,0.3,1.4
			C-152.8-25.7-152.8-25.5-152.8-25.3z M-153.9-26.9c-0.2-0.3-0.4-0.4-0.6-0.6c-0.3-0.1-0.6-0.2-0.9-0.2c-0.5,0-0.9,0.1-1.2,0.4
			c-0.3,0.3-0.5,0.7-0.6,1.3h3.5C-153.8-26.4-153.8-26.7-153.9-26.9z"/>
		<path d="M-149.2-28.2c0.3-0.2,0.7-0.3,1.1-0.3v0.9h-0.2c-1,0-1.5,0.6-1.5,1.7v3h-0.9v-5.5h0.9v0.9
			C-149.8-27.8-149.6-28.1-149.2-28.2z"/>
		<path d="M-146.4-29.5c-0.1-0.1-0.2-0.3-0.2-0.4s0.1-0.3,0.2-0.4c0.1-0.1,0.3-0.2,0.4-0.2c0.2,0,0.3,0.1,0.4,0.2
			c0.1,0.1,0.2,0.3,0.2,0.4s-0.1,0.3-0.2,0.4c-0.1,0.1-0.3,0.2-0.4,0.2C-146.1-29.3-146.2-29.3-146.4-29.5z M-145.6-28.4v5.5h-0.9
			v-5.5H-145.6z"/>
		<path d="M-142.3-30.3v7.4h-0.9v-7.4H-142.3z"/>
	</g>
	<g>
		<path class="st0" d="M-140.6-24L-140.6-24c-1.4,0.4-1.1,2.5,0.4,2.5h2C-139.2-22.1-140.1-22.9-140.6-24z"/>
		<path class="st0" d="M-137.6-31.8L-137.6-31.8c-0.7-1.3,1-2.5,2-1.5l1.4,1.4C-135.2-32.2-136.4-32.2-137.6-31.8z"/>
		<path class="st1" d="M-130.1-27.5c0.1,0.4,0.1,0.7,0.1,1.1c0,2.1-1.1,3.9-2.8,4.8c2-0.2,3.8-1,5.3-2.1
			C-125.2-25.3-127.4-28.8-130.1-27.5L-130.1-27.5z"/>
	</g>
	<path class="st0" d="M-135.6-31.4c-2.7,0-4.9,2.2-4.9,4.9s2.2,4.9,4.9,4.9c2.7,0,4.9-2.1,4.9-4.8S-132.8-31.4-135.6-31.4z
		 M-135.6-23c-1.9,0-3.5-1.6-3.5-3.5s1.6-3.5,3.5-3.5c1.9,0,3.5,1.6,3.5,3.5C-132.1-24.5-133.6-23-135.6-23z"/>
	<g>
		<g>
			<path class="st0" d="M-102.6-18.9L-102.6-18.9c-3.3,1-2.6,5.9,0.9,5.9h4.8C-99.3-14.4-101.3-16.5-102.6-18.9z"/>
			<path class="st0" d="M-95.4-37.7L-95.4-37.7c-1.6-3,2.3-6,4.7-3.5l3.4,3.4C-89.9-38.6-92.8-38.6-95.4-37.7z"/>
			<path class="st1" d="M-77.6-27.4c0.2,0.8,0.3,1.7,0.3,2.5c0,4.9-2.7,9.3-6.7,11.6c4.7-0.6,9-2.3,12.6-5c5.4-4,0-12.3-5.9-9.3
				L-77.6-27.4z"/>
		</g>
		<path class="st0" d="M-90.6-36.6c-6.5,0-11.8,5.3-11.8,11.8S-97.1-13-90.6-13s11.7-5.4,11.7-11.9S-84.1-36.6-90.6-36.6z
			 M-90.6-16.6c-4.6,0-8.3-3.7-8.3-8.3s3.7-8.3,8.3-8.3c4.6,0,8.3,3.7,8.3,8.3S-86.1-16.6-90.6-16.6z"/>
	</g>
	<g id="Warstwa_2_1_">
	</g>
	<g>
		<circle class="st0" cx="-28" cy="-27.6" r="8.9"/>
		<path class="st0" d="M-29.2-39.4c0.6-1,1.9-1,2.5,0l0,0l1.4,2.2c0,0-0.8-0.5-2.7-0.5c-1.9,0-2.8,0.5-2.8,0.5L-29.2-39.4
			C-29.2-39.3-29.2-39.3-29.2-39.4L-29.2-39.4z"/>
		<path class="st0" d="M-26.8-15.8c-0.6,1-1.9,1-2.5,0l0,0l-1.4-2.2c0,0,0.8,0.5,2.7,0.5c1.9,0,2.8-0.5,2.8-0.5L-26.8-15.8
			C-26.8-15.9-26.8-15.8-26.8-15.8L-26.8-15.8z"/>
		<path class="st0" d="M-16-28.8c1,0.6,1,1.9,0,2.5l0,0l-2.2,1.4c0,0,0.5-0.8,0.5-2.7c0-1.9-0.5-2.8-0.5-2.8L-16-28.8
			C-16-28.8-16-28.8-16-28.8L-16-28.8z"/>
		<path class="st0" d="M-39.8-26.4c-1-0.6-1-1.9,0-2.5l0,0l2.2-1.4c0,0-0.5,0.8-0.5,2.7c0,1.9,0.5,2.8,0.5,2.8L-39.8-26.4
			C-39.8-26.3-39.8-26.4-39.8-26.4L-39.8-26.4z"/>
		<path class="st0" d="M-37.5-35.4c-0.3-1.1,0.7-2.1,1.8-1.8l0.1,0l2.6,0.6c0,0-0.9,0.2-2.3,1.6c-1.3,1.3-1.6,2.3-1.6,2.3l-0.5-2.6
			C-37.5-35.3-37.5-35.4-37.5-35.4L-37.5-35.4z"/>
		<path class="st0" d="M-18.5-19.9c0.3,1.1-0.7,2.1-1.8,1.8l-0.1,0l-2.6-0.6c0,0,0.9-0.2,2.3-1.6s1.6-2.3,1.6-2.3l0.5,2.6
			C-18.5-19.9-18.5-19.9-18.5-19.9L-18.5-19.9z"/>
		<path class="st0" d="M-20.6-37.4c1.1-0.3,2.1,0.7,1.8,1.8l0,0.1l-0.6,2.6c0,0-0.2-0.9-1.6-2.3s-2.3-1.6-2.3-1.6l2.6-0.5
			C-20.7-37.3-20.7-37.3-20.6-37.4L-20.6-37.4z"/>
		<path class="st0" d="M-36.4-18.7c-1.1,0.3-2.1-0.7-1.8-1.8l0-0.1l0.6-2.6c0,0,0.2,0.9,1.6,2.3c1.3,1.3,2.3,1.6,2.3,1.6l-2.6,0.5
			C-36.3-18.7-36.4-18.7-36.4-18.7L-36.4-18.7z"/>
	</g>
	<path class="st1" d="M33.3-33.6c-1,0-2.3,0.1-3.2,0.4c-1.2-2.5-4.1-4.3-7.1-4.3c-0.9,0-1.7,0.1-2.4,0.4c-1.4-1.5-3.4-2.5-5.6-2.5
		c-3.3,0-6,2.1-7.1,5C4.5-33.8,2-30.8,2-27.2c0,2.3,1.1,4.4,2.8,5.8h34.4c1-1.3,1.6-2.9,1.6-4.7C40.8-30.3,37.5-33.6,33.3-33.6z"/>
	<path class="st2" d="M40.1-28.5c-1.1,0-2.5,0.1-3.4,0.5c-1.3-2.6-4.4-4.6-7.5-4.6c-0.9,0-1.8,0.2-2.6,0.4c-1.5-1.6-3.6-2.6-5.9-2.6
		c-3.5,0-6.4,2.2-7.5,5.3c-3.6,0.8-6.2,4-6.2,7.8c0,2.5,1.1,4.7,2.9,6.2h36.4c1.1-1.4,1.7-3.1,1.7-4.9C48-24.9,44.5-28.5,40.1-28.5z
		"/>
	<path class="st1" d="M39.4-27.8c-1,0-2.3,0.1-3.2,0.4c-1.2-2.5-4.1-4.3-7.1-4.3c-0.9,0-1.7,0.1-2.4,0.4c-1.4-1.5-3.4-2.5-5.6-2.5
		c-3.3,0-6,2.1-7.1,5C10.6-28,8.1-25,8.1-21.4c0,2.3,1.1,4.4,2.8,5.8h34.4c1-1.3,1.6-2.9,1.6-4.7C46.9-24.4,43.6-27.8,39.4-27.8z"/>
	<path class="st1" d="M-16,14.5c-1,0-2.3,0.1-3.2,0.4c-1.2-2.5-4.1-4.3-7.1-4.3c-0.9,0-1.7,0.1-2.4,0.4c-1.4-1.5-3.4-2.5-5.6-2.5
		c-3.3,0-6,2.1-7.1,5c-3.4,0.7-5.9,3.7-5.9,7.3c0,2.3,1.1,4.4,2.8,5.8h34.4c1-1.3,1.6-2.9,1.6-4.7C-8.5,17.9-11.8,14.5-16,14.5z"/>
	<path class="st1" d="M36.9,14.5c-1,0-2.3,0.1-3.2,0.4c-1.2-2.5-4.1-4.3-7.1-4.3c-0.9,0-1.7,0.1-2.4,0.4c-1.4-1.5-3.4-2.5-5.6-2.5
		c-3.3,0-6,2.1-7.1,5c-3.4,0.7-5.9,3.7-5.9,7.3c0,2.3,1.1,4.4,2.8,5.8h34.4c1-1.3,1.6-2.9,1.6-4.7C44.4,17.9,41.1,14.5,36.9,14.5z"
		/>
	<path class="st1" d="M89.8,14.5c-1,0-2.3,0.1-3.2,0.4c-1.2-2.5-4.1-4.3-7.1-4.3c-0.9,0-1.7,0.1-2.4,0.4c-1.4-1.5-3.4-2.5-5.6-2.5
		c-3.3,0-6,2.1-7.1,5c-3.4,0.7-5.9,3.7-5.9,7.3c0,2.3,1.1,4.4,2.8,5.8h34.4c1-1.3,1.6-2.9,1.6-4.7C97.3,17.9,94,14.5,89.8,14.5z"/>
	<g>
		<path class="st1" d="M86.2-30.8c-1,0-2.3,0.1-3.2,0.4c-1.2-2.5-4.1-4.3-7.1-4.3c-0.9,0-1.7,0.1-2.4,0.4c-1.4-1.5-3.4-2.5-5.6-2.5
			c-3.3,0-6,2.1-7.1,5c-3.4,0.7-5.9,3.7-5.9,7.3c0,2.3,1.1,4.4,2.8,5.8h34.4c1-1.3,1.6-2.9,1.6-4.7C93.7-27.4,90.4-30.8,86.2-30.8z"
			/>
		<path class="st2" d="M93-25.6c-1.1,0-2.5,0.1-3.4,0.5c-1.3-2.6-4.4-4.6-7.5-4.6c-0.9,0-1.8,0.2-2.6,0.4c-1.5-1.6-3.6-2.6-5.9-2.6
			c-3.5,0-6.4,2.2-7.5,5.3c-3.6,0.8-6.2,4-6.2,7.8c0,2.5,1.1,4.7,2.9,6.2h36.4c1.1-1.4,1.7-3.1,1.7-4.9
			C100.9-22.1,97.4-25.6,93-25.6z"/>
		<g>
			<circle class="st0" cx="85.5" cy="-30" r="8.9"/>
			<path class="st0" d="M84.3-41.7c0.6-1,1.9-1,2.5,0l0,0l1.4,2.2c0,0-0.8-0.5-2.7-0.5c-1.9,0-2.8,0.5-2.8,0.5L84.3-41.7
				C84.2-41.7,84.2-41.7,84.3-41.7L84.3-41.7z"/>
			<path class="st0" d="M86.7-18.2c-0.6,1-1.9,1-2.5,0l0,0l-1.4-2.2c0,0,0.8,0.5,2.7,0.5c1.9,0,2.8-0.5,2.8-0.5L86.7-18.2
				C86.7-18.2,86.7-18.2,86.7-18.2L86.7-18.2z"/>
			<path class="st0" d="M97.5-31.2c1,0.6,1,1.9,0,2.5l0,0l-2.2,1.4c0,0,0.5-0.8,0.5-2.7c0-1.9-0.5-2.8-0.5-2.8L97.5-31.2
				C97.5-31.2,97.5-31.2,97.5-31.2L97.5-31.2z"/>
			<path class="st0" d="M76-37.8c-0.3-1.1,0.7-2.1,1.8-1.8l0.1,0l2.6,0.6c0,0-0.9,0.2-2.3,1.6c-1.3,1.3-1.6,2.3-1.6,2.3L76-37.7
				C76-37.7,76-37.7,76-37.8L76-37.8z"/>
			<path class="st0" d="M94.9-22.2c0.3,1.1-0.7,2.1-1.8,1.8l-0.1,0L90.5-21c0,0,0.9-0.2,2.3-1.6s1.6-2.3,1.6-2.3l0.5,2.6
				C94.9-22.3,94.9-22.3,94.9-22.2L94.9-22.2z"/>
			<path class="st0" d="M92.8-39.7c1.1-0.3,2.1,0.7,1.8,1.8l0,0.1L94-35.3c0,0-0.2-0.9-1.6-2.3c-1.3-1.3-2.3-1.6-2.3-1.6l2.6-0.5
				C92.8-39.7,92.8-39.7,92.8-39.7L92.8-39.7z"/>
			<path class="st0" d="M77.1-21.1c-1.1,0.3-2.1-0.7-1.8-1.8l0-0.1l0.6-2.6c0,0,0.2,0.9,1.6,2.3c1.3,1.3,2.3,1.6,2.3,1.6l-2.6,0.5
				C77.2-21.1,77.1-21.1,77.1-21.1L77.1-21.1z"/>
		</g>
		<path class="st1" d="M92.3-24.9c-1,0-2.3,0.1-3.2,0.4c-1.2-2.5-4.1-4.3-7.1-4.3c-0.9,0-1.7,0.1-2.4,0.4c-1.4-1.5-3.4-2.5-5.6-2.5
			c-3.3,0-6,2.1-7.1,5c-3.4,0.7-5.9,3.7-5.9,7.3c0,2.3,1.1,4.4,2.8,5.8h34.4c1-1.3,1.6-2.9,1.6-4.7C99.8-21.5,96.5-24.9,92.3-24.9z"
			/>
	</g>
	<g>
		<path class="st1" d="M-41.9,29.8l2.3,3.9c0.4,0.6,1,0.9,1.5,0.7l0,0c0.4-0.3,0.5-1,0.1-1.6l-2.3-3.9c-0.4-0.6-1-0.9-1.5-0.7h0
			C-42.3,28.5-42.3,29.2-41.9,29.8z"/>
		<path class="st1" d="M-29.9,29.8l2.3,3.9c0.4,0.6,1,0.9,1.5,0.7l0,0c0.4-0.3,0.5-1,0.1-1.6l-2.3-3.9c-0.4-0.6-1-0.9-1.5-0.7v0
			C-30.2,28.5-30.2,29.2-29.9,29.8z"/>
		<path class="st1" d="M-17.8,29.8l2.3,3.9c0.4,0.6,1,0.9,1.5,0.7h0c0.4-0.3,0.5-1,0.1-1.6l-2.3-3.9c-0.4-0.6-1-0.9-1.5-0.7h0
			C-18.1,28.4-18.2,29.2-17.8,29.8z"/>
		<path class="st1" d="M-34.7,33l2.3,3.9c0.4,0.6,1,0.9,1.5,0.7l0,0c0.4-0.3,0.5-1,0.1-1.6l-2.3-3.9c-0.4-0.6-1-0.9-1.5-0.7l0,0
			C-35,31.7-35,32.4-34.7,33z"/>
		<path class="st1" d="M-22.6,33l2.3,3.9c0.4,0.6,1,0.9,1.5,0.7h0c0.4-0.3,0.5-1,0.1-1.6l-2.3-3.9c-0.4-0.6-1-0.9-1.5-0.7h0
			C-22.9,31.7-23,32.4-22.6,33z"/>
	</g>
	<g>
		<path class="st1" d="M13.9,28.4l0.1,0.2c0.1,0.2,0.3,0.3,0.5,0.3l0.2,0c0.5,0.1,0.7,0.7,0.3,1.1l-0.1,0.1
			c-0.1,0.1-0.2,0.4-0.2,0.6l0,0.2c0.1,0.5-0.5,0.9-0.9,0.7l-0.2-0.1c-0.2-0.1-0.4-0.1-0.6,0l-0.2,0.1c-0.5,0.2-1-0.1-0.9-0.7l0-0.2
			c0-0.2,0-0.4-0.2-0.6l-0.1-0.1c-0.4-0.4-0.2-1,0.3-1.1l0.2,0c0.2,0,0.4-0.2,0.5-0.3l0.1-0.2C13,28,13.7,28,13.9,28.4z"/>
		<path class="st1" d="M26.1,28.4l0.1,0.2c0.1,0.2,0.3,0.3,0.5,0.3l0.2,0c0.5,0.1,0.7,0.7,0.3,1.1L27,30.2c-0.1,0.1-0.2,0.4-0.2,0.6
			l0,0.2c0.1,0.5-0.5,0.9-0.9,0.7l-0.2-0.1c-0.2-0.1-0.4-0.1-0.6,0L25,31.6c-0.5,0.2-1-0.1-0.9-0.7l0-0.2c0-0.2,0-0.4-0.2-0.6
			l-0.1-0.1c-0.4-0.4-0.2-1,0.3-1.1l0.2,0c0.2,0,0.4-0.2,0.5-0.3l0.1-0.2C25.2,28,25.8,28,26.1,28.4z"/>
		<path class="st1" d="M38.2,28.4l0.1,0.2c0.1,0.2,0.3,0.3,0.5,0.3l0.2,0c0.5,0.1,0.7,0.7,0.3,1.1l-0.1,0.1
			c-0.1,0.1-0.2,0.4-0.2,0.6l0,0.2c0.1,0.5-0.5,0.9-0.9,0.7l-0.2-0.1c-0.2-0.1-0.4-0.1-0.6,0l-0.2,0.1c-0.5,0.2-1-0.1-0.9-0.7l0-0.2
			c0-0.2,0-0.4-0.2-0.6l-0.1-0.1c-0.4-0.4-0.2-1,0.3-1.1l0.2,0c0.2,0,0.4-0.2,0.5-0.3l0.1-0.2C37.3,28,37.9,28,38.2,28.4z"/>
	</g>
	<g>
		<path class="st1" d="M19.8,32.7l0.1,0.2c0.1,0.2,0.3,0.3,0.5,0.3l0.2,0c0.5,0.1,0.7,0.7,0.3,1.1l-0.1,0.1
			c-0.1,0.1-0.2,0.4-0.2,0.6l0,0.2c0.1,0.5-0.5,0.9-0.9,0.7l-0.2-0.1c-0.2-0.1-0.4-0.1-0.6,0l-0.2,0.1c-0.5,0.2-1-0.1-0.9-0.7l0-0.2
			c0-0.2,0-0.4-0.2-0.6l-0.1-0.1c-0.4-0.4-0.2-1,0.3-1.1l0.2,0c0.2,0,0.4-0.2,0.5-0.3l0.1-0.2C18.9,32.2,19.5,32.2,19.8,32.7z"/>
		<path class="st1" d="M32.4,32.7l0.1,0.2c0.1,0.2,0.3,0.3,0.5,0.3l0.2,0c0.5,0.1,0.7,0.7,0.3,1.1l-0.1,0.1
			c-0.1,0.1-0.2,0.4-0.2,0.6l0,0.2c0.1,0.5-0.5,0.9-0.9,0.7l-0.2-0.1c-0.2-0.1-0.4-0.1-0.6,0l-0.2,0.1c-0.5,0.2-1-0.1-0.9-0.7l0-0.2
			c0-0.2,0-0.4-0.2-0.6l-0.1-0.1c-0.4-0.4-0.2-1,0.3-1.1l0.2,0c0.2,0,0.4-0.2,0.5-0.3l0.1-0.2C31.5,32.2,32.1,32.2,32.4,32.7z"/>
	</g>
	<line class="st0" x1="74.4" y1="2.6" x2="79.8" y2="2.6"/>
	<polygon class="st0" points="82.3,26.3 79.1,26.3 80.9,17.9 76.4,17.9 73.4,31.5 76.7,31.5 74.9,39.9 	"/>
	<polygon class="st2" points="73.9,39.7 75.5,32.5 72.2,32.5 75.6,16.9 82.2,16.9 80.3,25.3 84,25.3 75.7,40.4 	"/>
	<polygon class="st0" points="82.3,26.3 79.1,26.3 80.9,17.9 76.4,17.9 73.4,31.5 76.7,31.5 74.9,39.9 	"/>
</g>
<g id="Warstwa_2">
</g>
</svg>
