<?xml version="1.0" encoding="utf-8"?>
<!-- Generator: Adobe Illustrator 25.0.0, SVG Export Plug-In . SVG Version: 6.00 Build 0)  -->
<svg version="1.1" xmlns="http://www.w3.org/2000/svg" xmlns:xlink="http://www.w3.org/1999/xlink" x="0px" y="0px"
	 viewBox="0 0 50 50" style="enable-background:new 0 0 50 50;" xml:space="preserve">
<style type="text/css">
	.st0{fill:#FFFFFF;}
	.st1{fill:#FFCE2E;}
	.st2{fill:#5C89FF;}
</style>
<g id="Warstwa_1">
	<g>
		<g>
			<text transform="matrix(1 0 0 1 -64.7699 27.5319)" style="font-family:'Poppins-Regular'; font-size:10.0458px;">aerilo</text>
			<g>
				<circle class="st0" cx="-34.5" cy="23.7" r="5.6"/>
				<circle class="st0" cx="-34.5" cy="23.7" r="4.9"/>
			</g>
			<g>
				<g>
					<path class="st1" d="M-39.2,26.5L-39.2,26.5c-1.4,0.4-1.1,2.5,0.4,2.5h2C-37.9,28.4-38.7,27.5-39.2,26.5z"/>
					<path class="st1" d="M-36.2,18.6L-36.2,18.6c-0.7-1.3,1-2.5,2-1.5l1.4,1.4C-33.9,18.2-35.1,18.2-36.2,18.6z"/>
					<path class="st2" d="M-28.8,22.9c0.1,0.4,0.1,0.7,0.1,1.1c0,2.1-1.1,3.9-2.8,4.8c2-0.2,3.8-1,5.3-2.1
						C-23.9,25.1-26.2,21.6-28.8,22.9L-28.8,22.9z"/>
				</g>
				<circle class="st1" cx="-34.2" cy="24" r="4.9"/>
			</g>
		</g>
		<circle class="st0" cx="-34.2" cy="24" r="3.5"/>
	</g>
	<g>
		<g>
			<g>
				<path class="st1" d="M9.4,33.7L9.4,33.7c-3.3,1-2.6,5.9,0.9,5.9h4.8C12.6,38.2,10.6,36.2,9.4,33.7z"/>
				<path class="st1" d="M16.5,14.9L16.5,14.9c-1.6-3,2.3-6,4.7-3.5l3.4,3.4C22,14,19.2,14,16.5,14.9z"/>
				<path class="st2" d="M34.4,25.2c0.2,0.8,0.3,1.7,0.3,2.6c0,4.9-2.7,9.3-6.7,11.6c4.7-0.6,9-2.3,12.6-5c5.4-4,0-12.3-5.9-9.3
					L34.4,25.2z"/>
			</g>
			<circle class="st1" cx="21.3" cy="27.8" r="11.8"/>
		</g>
		<circle class="st0" cx="21.3" cy="27.8" r="8.3"/>
	</g>
</g>
<g id="Warstwa_2">
</g>
</svg>
