<?xml version="1.0" encoding="utf-8"?>
<!-- Generator: Adobe Illustrator 25.0.0, SVG Export Plug-In . SVG Version: 6.00 Build 0)  -->
<svg version="1.1" id="Warstwa_1" xmlns="http://www.w3.org/2000/svg" xmlns:xlink="http://www.w3.org/1999/xlink" x="0px" y="0px"
	 viewBox="0 0 25.3 25" style="enable-background:new 0 0 25.3 25;" xml:space="preserve">
<style type="text/css">
	.st0{fill:#FFCE2E;}
	.st1{fill:#5C89FF;}
	.st2{fill:#FFFFFF;}
	.st3{fill:none;}
</style>
<g>
	<path d="M-124.8,13c0.2-0.4,0.5-0.8,0.9-1s0.8-0.4,1.3-0.4s0.9,0.1,1.3,0.3s0.7,0.5,0.9,0.8v-1h0.9v5.5h-0.9v-1
		c-0.2,0.3-0.5,0.6-0.8,0.8c-0.4,0.2-0.8,0.3-1.3,0.3s-0.9-0.1-1.3-0.4c-0.4-0.2-0.7-0.6-0.9-1c-0.2-0.4-0.4-0.9-0.4-1.5
		C-125.1,13.9-125,13.4-124.8,13z M-120.7,13.4c-0.2-0.3-0.4-0.6-0.7-0.7c-0.3-0.1-0.6-0.3-0.9-0.3s-0.7,0.1-0.9,0.2
		c-0.3,0.2-0.5,0.4-0.7,0.8c-0.2,0.4-0.3,0.6-0.3,1s0.1,0.8,0.3,1.1c0.2,0.3,0.4,0.5,0.7,0.7c0.3,0.2,0.6,0.2,0.9,0.2
		s0.7-0.1,0.9-0.2c0.2-0.1,0.5-0.4,0.7-0.7s0.3-0.6,0.3-1.1C-120.4,14-120.5,13.7-120.7,13.4z"/>
	<path d="M-112.3,14.8h-4.4c0,0.5,0.2,1,0.6,1.3c0.3,0.3,0.7,0.5,1.2,0.5c0.4,0,0.7-0.1,1-0.3c0.3-0.2,0.5-0.4,0.6-0.7h1
		c-0.1,0.5-0.4,1-0.9,1.3c-0.4,0.3-1,0.5-1.6,0.5c-0.5,0-1-0.1-1.4-0.4c-0.4-0.2-0.7-0.6-1-1c-0.3-0.5-0.4-1-0.4-1.6
		s0.1-1.1,0.3-1.5c0.2-0.4,0.5-0.8,1-1s0.9-0.3,1.4-0.3s1,0.1,1.4,0.3s0.7,0.5,0.9,0.9c0.2,0.4,0.3,0.8,0.3,1.4
		C-112.2,14.4-112.3,14.6-112.3,14.8z M-113.4,13.2c-0.2-0.3-0.4-0.4-0.6-0.6c-0.3-0.1-0.6-0.2-0.9-0.2c-0.5,0-0.9,0.1-1.2,0.4
		s-0.5,0.7-0.6,1.3h3.5C-113.2,13.7-113.3,13.4-113.4,13.2z"/>
	<path d="M-108.7,11.9c0.3-0.2,0.7-0.3,1.1-0.3v0.9h-0.2c-1,0-1.5,0.6-1.5,1.7v3h-0.9v-5.5h0.9v0.9C-109.3,12.3-109,12-108.7,11.9z"
		/>
	<path d="M-105.9,10.6c-0.1-0.1-0.2-0.3-0.2-0.4s0.1-0.3,0.2-0.4c0.1-0.1,0.3-0.2,0.4-0.2c0.2,0,0.3,0.1,0.4,0.2
		c0.1,0.1,0.2,0.3,0.2,0.4s-0.1,0.3-0.2,0.4c-0.1,0.1-0.3,0.2-0.4,0.2S-105.7,10.8-105.9,10.6z M-105,11.7v5.5h-0.9v-5.5
		C-105.9,11.7-105,11.7-105,11.7z"/>
	<path d="M-101.8,9.8v7.4h-0.9V9.8H-101.8z"/>
</g>
<g>
	<path class="st0" d="M-100,16.1L-100,16.1c-1.4,0.4-1.1,2.5,0.4,2.5h2C-98.7,18-99.5,17.2-100,16.1z"/>
	<path class="st0" d="M-97,8.3L-97,8.3c-0.7-1.3,1-2.5,2-1.5l1.4,1.4C-94.7,7.9-95.9,7.9-97,8.3z"/>
	<path class="st1" d="M-89.5,12.6c0.1,0.4,0.1,0.7,0.1,1.1c0,2.1-1.1,3.9-2.8,4.8c2-0.2,3.8-1,5.3-2.1
		C-84.7,14.8-86.9,11.3-89.5,12.6L-89.5,12.6z"/>
</g>
<path class="st0" d="M-95,8.7c-2.7,0-4.9,2.2-4.9,4.9s2.2,4.9,4.9,4.9s4.9-2.1,4.9-4.8S-92.3,8.7-95,8.7z M-95,17.1
	c-1.9,0-3.5-1.6-3.5-3.5s1.6-3.5,3.5-3.5s3.5,1.6,3.5,3.5C-91.5,15.6-93.1,17.1-95,17.1z"/>
<g>
	<g>
		<path class="st0" d="M-62.1,21.2L-62.1,21.2c-3.3,1-2.6,5.9,0.9,5.9h4.8C-58.8,25.7-60.8,23.6-62.1,21.2z"/>
		<path class="st0" d="M-54.9,2.4L-54.9,2.4c-1.6-3,2.3-6,4.7-3.5l3.4,3.4C-49.4,1.5-52.3,1.5-54.9,2.4z"/>
		<path class="st1" d="M-37.1,12.7c0.2,0.8,0.3,1.7,0.3,2.5c0,4.9-2.7,9.3-6.7,11.6c4.7-0.6,9-2.3,12.6-5c5.4-4,0-12.3-5.9-9.3
			L-37.1,12.7z"/>
	</g>
	<path class="st0" d="M-50.1,3.5c-6.5,0-11.8,5.3-11.8,11.8s5.3,11.8,11.8,11.8s11.7-5.4,11.7-11.9S-43.6,3.5-50.1,3.5z M-50.1,23.5
		c-4.6,0-8.3-3.7-8.3-8.3s3.7-8.3,8.3-8.3s8.3,3.7,8.3,8.3S-45.6,23.5-50.1,23.5z"/>
</g>
<g id="Warstwa_2_1_">
</g>
<g>
	<circle class="st0" cx="-14.4" cy="12.5" r="8.9"/>
	<path class="st0" d="M-15.6,0.7c0.6-1,1.9-1,2.5,0l0,0l1.4,2.3c0,0-0.8-0.5-2.7-0.5S-17.2,3-17.2,3L-15.6,0.7
		C-15.7,0.8-15.7,0.8-15.6,0.7L-15.6,0.7z"/>
	<path class="st0" d="M-13.2,24.3c-0.6,1-1.9,1-2.5,0l0,0l-1.5-2.3c0,0,0.8,0.5,2.7,0.5s2.8-0.5,2.8-0.5L-13.2,24.3
		C-13.2,24.2-13.2,24.3-13.2,24.3L-13.2,24.3z"/>
	<path class="st0" d="M-2.4,11.3c1,0.6,1,1.9,0,2.5l0,0l-2.2,1.4c0,0,0.5-0.8,0.5-2.7s-0.5-2.8-0.5-2.8L-2.4,11.3
		C-2.5,11.3-2.4,11.3-2.4,11.3L-2.4,11.3z"/>
	<path class="st0" d="M-26.3,13.7c-1-0.6-1-1.9,0-2.5l0,0l2.3-1.4c0,0-0.5,0.8-0.5,2.7s0.5,2.8,0.5,2.8L-26.3,13.7
		C-26.2,13.8-26.2,13.7-26.3,13.7L-26.3,13.7z"/>
	<path class="st0" d="M-23.9,4.7c-0.3-1.1,0.7-2.1,1.7-1.8h0.1l2.6,0.6c0,0-0.9,0.2-2.3,1.6s-1.6,2.3-1.6,2.3l-0.5-2.6V4.7
		L-23.9,4.7z"/>
	<path class="st0" d="M-5,20.2c0.3,1.1-0.7,2.1-1.8,1.8h-0.1l-2.6-0.6c0,0,0.9-0.2,2.3-1.6c1.3-1.3,1.6-2.3,1.6-2.3l0.5,2.6
		C-5,20.2-5,20.2-5,20.2L-5,20.2z"/>
	<path class="st0" d="M-7.1,2.7C-6,2.5-5,3.4-5.3,4.5v0.1l-0.6,2.6c0,0-0.2-0.9-1.6-2.3s-2.3-1.6-2.3-1.6L-7.1,2.7
		C-7.1,2.8-7.1,2.8-7.1,2.7L-7.1,2.7z"/>
	<path class="st0" d="M-22.8,21.4c-1.1,0.3-2.1-0.7-1.8-1.8v-0.1L-24,17c0,0,0.2,0.9,1.6,2.3c1.3,1.3,2.3,1.6,2.3,1.6l-2.6,0.5
		C-22.8,21.4-22.8,21.4-22.8,21.4L-22.8,21.4z"/>
</g>
<path class="st1" d="M73.9,6.5c-1,0-2.3,0.1-3.2,0.4c-1.2-2.5-4.1-4.3-7.1-4.3c-0.9,0-1.7,0.1-2.4,0.4c-1.4-1.5-3.4-2.5-5.6-2.5
	c-3.3,0-6,2.1-7.1,5c-3.4,0.7-5.9,3.7-5.9,7.3c0,2.3,1.1,4.4,2.8,5.8h34.4c1-1.3,1.6-2.9,1.6-4.7C81.4,9.8,78,6.5,73.9,6.5z"/>
<path class="st2" d="M80.6,11.6c-1.1,0-2.5,0.1-3.4,0.5c-1.3-2.6-4.4-4.6-7.5-4.6c-0.9,0-1.8,0.2-2.6,0.4c-1.5-1.6-3.6-2.6-5.9-2.6
	c-3.5,0-6.4,2.2-7.5,5.3c-3.6,0.8-6.2,4-6.2,7.8c0,2.5,1.1,4.7,2.9,6.2h36.4c1.1-1.4,1.7-3.1,1.7-4.9C88.6,15.2,85,11.6,80.6,11.6z"
	/>
<path class="st1" d="M80,12.3c-1,0-2.3,0.1-3.2,0.4c-1.2-2.5-4.1-4.3-7.1-4.3c-0.9,0-1.7,0.1-2.4,0.4c-1.4-1.5-3.4-2.5-5.6-2.5
	c-3.3,0-6,2.1-7.1,5c-3.4,0.7-5.9,3.7-5.9,7.3c0,2.3,1.1,4.4,2.8,5.8h34.4c1-1.3,1.6-2.9,1.6-4.7C87.5,15.7,84.1,12.3,80,12.3z"/>
<path class="st1" d="M77.5,54.6c-1,0-2.3,0.1-3.2,0.4c-1.2-2.5-4.1-4.3-7.1-4.3c-0.9,0-1.7,0.1-2.4,0.4c-1.4-1.5-3.4-2.5-5.6-2.5
	c-3.3,0-6,2.1-7.1,5c-3.4,0.7-5.9,3.7-5.9,7.3c0,2.3,1.1,4.4,2.8,5.8h34.4c1-1.3,1.6-2.9,1.6-4.7C85,58,81.6,54.6,77.5,54.6z"/>
<path class="st1" d="M130.4,54.6c-1,0-2.3,0.1-3.2,0.4c-1.2-2.5-4.1-4.3-7.1-4.3c-0.9,0-1.7,0.1-2.4,0.4c-1.4-1.5-3.4-2.5-5.6-2.5
	c-3.3,0-6,2.1-7.1,5c-3.4,0.7-5.9,3.7-5.9,7.3c0,2.3,1.1,4.4,2.8,5.8h34.4c1-1.3,1.6-2.9,1.6-4.7C137.9,58,134.5,54.6,130.4,54.6z"
	/>
<g>
	<path class="st1" d="M126.8,9.3c-1,0-2.3,0.1-3.2,0.4c-1.2-2.5-4.1-4.3-7.1-4.3c-0.9,0-1.7,0.1-2.4,0.4c-1.4-1.5-3.4-2.5-5.6-2.5
		c-3.3,0-6,2.1-7.1,5C98,9,95.5,12,95.5,15.6c0,2.3,1.1,4.4,2.8,5.8h34.4c1-1.3,1.6-2.9,1.6-4.7C134.3,12.7,130.9,9.3,126.8,9.3z"/>
	<path class="st2" d="M133.5,14.5c-1.1,0-2.5,0.1-3.4,0.5c-1.3-2.6-4.4-4.6-7.5-4.6c-0.9,0-1.8,0.2-2.6,0.4
		c-1.5-1.6-3.6-2.6-5.9-2.6c-3.5,0-6.4,2.2-7.5,5.3c-3.6,0.8-6.2,4-6.2,7.8c0,2.5,1.1,4.7,2.9,6.2h36.4c1.1-1.4,1.7-3.1,1.7-4.9
		C141.5,18,137.9,14.5,133.5,14.5z"/>
	<g>
		<circle class="st0" cx="126.1" cy="10.2" r="8.9"/>
		<path class="st0" d="M124.8-1.6c0.6-1,1.9-1,2.5,0l0,0l1.4,2.2c0,0-0.8-0.5-2.7-0.5c-1.9,0-2.8,0.5-2.8,0.5L124.8-1.6L124.8-1.6
			L124.8-1.6z"/>
		<path class="st0" d="M127.2,21.9c-0.6,1-1.9,1-2.5,0l0,0l-1.4-2.2c0,0,0.8,0.5,2.7,0.5c1.9,0,2.8-0.5,2.8-0.5L127.2,21.9
			C127.3,21.9,127.3,21.9,127.2,21.9L127.2,21.9z"/>
		<path class="st0" d="M138.1,8.9c1,0.6,1,1.9,0,2.5l0,0l-2.2,1.4c0,0,0.5-0.8,0.5-2.7s-0.5-2.8-0.5-2.8L138.1,8.9
			C138,8.9,138,8.9,138.1,8.9L138.1,8.9z"/>
		<path class="st0" d="M116.5,2.3c-0.3-1.1,0.7-2.1,1.8-1.8h0.1l2.6,0.6c0,0-0.9,0.2-2.3,1.6S117.1,5,117.1,5l-0.5-2.6
			C116.6,2.4,116.6,2.4,116.5,2.3L116.5,2.3z"/>
		<path class="st0" d="M135.5,17.9c0.3,1.1-0.7,2.1-1.8,1.8h-0.1l-2.6-0.6c0,0,0.9-0.2,2.3-1.6s1.6-2.3,1.6-2.3l0.5,2.6
			C135.5,17.8,135.5,17.8,135.5,17.9L135.5,17.9z"/>
		<path class="st0" d="M133.4,0.4c1.1-0.3,2.1,0.7,1.8,1.8v0.1l-0.6,2.6c0,0-0.2-0.9-1.6-2.3c-1.3-1.3-2.3-1.6-2.3-1.6l2.6-0.5
			C133.3,0.4,133.4,0.4,133.4,0.4L133.4,0.4z"/>
		<path class="st0" d="M117.6,19c-1.1,0.3-2.1-0.7-1.8-1.8v-0.1l0.6-2.6c0,0,0.2,0.9,1.6,2.3c1.3,1.3,2.3,1.6,2.3,1.6l-2.6,0.5
			C117.7,19,117.7,19,117.6,19L117.6,19z"/>
	</g>
	<path class="st1" d="M132.9,15.2c-1,0-2.3,0.1-3.2,0.4c-1.2-2.5-4.1-4.3-7.1-4.3c-0.9,0-1.7,0.1-2.4,0.4c-1.4-1.5-3.4-2.5-5.6-2.5
		c-3.3,0-6,2.1-7.1,5c-3.4,0.7-5.9,3.7-5.9,7.3c0,2.3,1.1,4.4,2.8,5.8h34.4c1-1.3,1.6-2.9,1.6-4.7C140.4,18.6,137,15.2,132.9,15.2z"
		/>
</g>
<g>
	<path class="st1" d="M20.4,6.9c-0.6,0-1.5,0.1-2.1,0.3c-0.8-1.6-2.7-2.8-4.6-2.8c-0.6,0-1.1,0.1-1.6,0.3C11.2,3.7,9.9,3,8.5,3
		C6.3,3,4.6,4.4,3.9,6.3C1.7,6.7,0.1,8.7,0.1,11c0,1.5,0.7,2.9,1.8,3.8h22.3c0.6-0.8,1-1.9,1-3.1C25.2,9.1,23,6.9,20.4,6.9z"/>
	<g>
		<path class="st1" d="M3.5,16.9L5,19.4c0.3,0.4,0.6,0.6,1,0.5l0,0c0.3-0.2,0.3-0.6,0.1-1l-1.4-2.5c-0.3-0.4-0.6-0.6-1-0.5l0,0
			C3.3,16,3.3,16.5,3.5,16.9z"/>
		<path class="st1" d="M11.4,16.9l1.5,2.5c0.3,0.4,0.6,0.6,1,0.5l0,0c0.3-0.2,0.3-0.6,0.1-1l-1.5-2.5c-0.3-0.4-0.6-0.6-1-0.5l0,0
			C11.2,16,11.1,16.5,11.4,16.9z"/>
		<path class="st1" d="M19.2,16.9l1.5,2.5c0.3,0.4,0.6,0.6,1,0.5l0,0c0.3-0.2,0.3-0.6,0.1-1l-1.5-2.5c-0.3-0.4-0.6-0.6-1-0.5l0,0
			C18.9,16,18.9,16.5,19.2,16.9z"/>
	</g>
</g>
<g>
	<path class="st1" d="M54.5,68.5l0.1,0.2c0.1,0.2,0.3,0.3,0.5,0.3h0.2c0.5,0.1,0.7,0.7,0.3,1.1l-0.1,0.1c-0.1,0.1-0.2,0.4-0.2,0.6
		V71c0.1,0.5-0.5,0.9-0.9,0.7l-0.2-0.1c-0.2-0.1-0.4-0.1-0.6,0l-0.2,0.1c-0.5,0.2-1-0.1-0.9-0.7v-0.2c0-0.2,0-0.4-0.2-0.6l-0.1-0.1
		c-0.4-0.4-0.2-1,0.3-1.1h0.2c0.2,0,0.4-0.2,0.5-0.3l0.1-0.2C53.6,68.1,54.3,68.1,54.5,68.5z"/>
	<path class="st1" d="M66.6,68.5l0.1,0.2c0.1,0.2,0.3,0.3,0.5,0.3h0.2c0.5,0.1,0.7,0.7,0.3,1.1l-0.1,0.1c-0.1,0.1-0.2,0.4-0.2,0.6
		V71c0.1,0.5-0.5,0.9-0.9,0.7l-0.2-0.1c-0.2-0.1-0.4-0.1-0.6,0l-0.2,0.1c-0.5,0.2-1-0.1-0.9-0.7v-0.2c0-0.2,0-0.4-0.2-0.6l-0.1-0.1
		c-0.4-0.4-0.2-1,0.3-1.1h0.2c0.2,0,0.4-0.2,0.5-0.3l0.1-0.2C65.7,68.1,66.4,68.1,66.6,68.5z"/>
	<path class="st1" d="M78.7,68.5l0.1,0.2c0.1,0.2,0.3,0.3,0.5,0.3h0.2c0.5,0.1,0.7,0.7,0.3,1.1l-0.1,0.1c-0.1,0.1-0.2,0.4-0.2,0.6
		V71c0.1,0.5-0.5,0.9-0.9,0.7l-0.2-0.1c-0.2-0.1-0.4-0.1-0.6,0l-0.2,0.1c-0.5,0.2-1-0.1-0.9-0.7v-0.2c0-0.2,0-0.4-0.2-0.6l-0.1-0.1
		c-0.4-0.4-0.2-1,0.3-1.1h0.2c0.2,0,0.4-0.2,0.5-0.3l0.1-0.2C77.8,68.1,78.5,68.1,78.7,68.5z"/>
</g>
<g>
	<path class="st1" d="M60.3,72.8l0.1,0.2c0.1,0.2,0.3,0.3,0.5,0.3h0.2c0.5,0.1,0.7,0.7,0.3,1.1l-0.1,0.1c-0.1,0.1-0.2,0.4-0.2,0.6
		v0.2c0.1,0.5-0.5,0.9-0.9,0.7L60,75.9c-0.2-0.1-0.4-0.1-0.6,0L59.3,76c-0.5,0.2-1-0.1-0.9-0.7v-0.2c0-0.2,0-0.4-0.2-0.6l-0.1-0.1
		c-0.4-0.4-0.2-1,0.3-1.1h0.2c0.2,0,0.4-0.2,0.5-0.3l0.1-0.2C59.4,72.3,60.1,72.3,60.3,72.8z"/>
	<path class="st1" d="M72.9,72.8L73,73c0.1,0.2,0.3,0.3,0.5,0.3h0.2c0.5,0.1,0.7,0.7,0.3,1.1l-0.1,0.1c-0.1,0.1-0.2,0.4-0.2,0.6v0.2
		c0.1,0.5-0.5,0.9-0.9,0.7l-0.2-0.1c-0.2-0.1-0.4-0.1-0.6,0L71.9,76c-0.5,0.2-1-0.1-0.9-0.7v-0.2c0-0.2,0-0.4-0.2-0.6l-0.1-0.1
		c-0.4-0.4-0.2-1,0.3-1.1h0.2c0.2,0,0.4-0.2,0.5-0.3l0.1-0.2C72,72.3,72.7,72.3,72.9,72.8z"/>
</g>
<line class="st3" x1="115" y1="42.7" x2="120.3" y2="42.7"/>
<polygon class="st0" points="122.9,66.4 119.6,66.4 121.5,58 117,58 114,71.6 117.3,71.6 115.4,80 "/>
<polygon class="st2" points="114.4,79.8 116,72.6 112.8,72.6 116.2,57 122.7,57 120.9,65.4 124.6,65.4 116.3,80.5 "/>
<polygon class="st0" points="122.9,66.4 119.6,66.4 121.5,58 117,58 114,71.6 117.3,71.6 115.4,80 "/>
<g id="Warstwa_2_2_">
</g>
</svg>
